<svg width="249" height="256" viewBox="0 0 249 256" fill="none" xmlns="http://www.w3.org/2000/svg">
<mask id="mask0_616_855" style="mask-type:luminance" maskUnits="userSpaceOnUse" x="0" y="0" width="249" height="256">
<path d="M248.727 0H0V256H248.727V0Z" fill="white"/>
</mask>
<g mask="url(#mask0_616_855)">
<path fill-rule="evenodd" clip-rule="evenodd" d="M165.82 216.426C141.049 213.139 115.972 213.139 91.2014 216.426C86.0193 216.854 80.838 217.494 75.656 218.346C74.8313 218.346 74.0408 218.684 73.4578 219.284C72.8741 219.884 72.5469 220.698 72.5469 221.546C72.5469 222.395 72.8741 223.21 73.4578 223.81C74.0408 224.41 74.8313 224.746 75.656 224.746H87.263C83.5321 242.346 88.1957 255.146 92.756 254.294C98.8708 253.226 96.176 231.466 94.8289 225.28C119.702 226.88 102.808 226.88 161.053 225.28C157.943 238.4 162.089 257.28 165.509 256.106C168.929 254.934 171.416 244.48 171.934 234.774C171.934 231.466 171.208 226.24 171.934 225.28C172.66 224.32 171.934 225.28 192.661 226.026C197.014 226.026 196.289 217.494 192.661 217.6C183.023 216.854 186.547 218.346 165.82 216.426Z" fill="#F4E0E3"/>
<path fill-rule="evenodd" clip-rule="evenodd" d="M235.979 99.52C224.579 78.1864 202.297 66.3464 182.088 78.9336C156.49 94.6136 142.499 143.894 162.604 174.934C168.001 183.447 175.06 190.712 183.332 196.266C186.298 197.847 189.476 198.962 192.762 199.574C196.287 200.214 197.53 195.52 192.762 192.854C190.67 192.289 188.651 191.465 186.752 190.4C179.727 185.116 173.835 178.398 169.444 170.666C154.936 145.494 166.335 106.026 185.197 91.52C217.013 66.9864 248.415 128.854 232.974 174.826C225.823 196.16 214.319 196.16 213.179 200.426C213.035 200.967 213.014 201.534 213.119 202.084C213.223 202.634 213.45 203.15 213.781 203.595C214.113 204.039 214.54 204.398 215.029 204.645C215.517 204.89 216.055 205.017 216.599 205.014C222.594 202.445 227.919 198.462 232.145 193.386C248.726 172.906 252.043 129.92 235.979 99.52Z" fill="#F4E0E3"/>
<path fill-rule="evenodd" clip-rule="evenodd" d="M200.745 249.174C200.607 250.135 200.847 251.114 201.41 251.894C201.974 252.674 202.815 253.192 203.75 253.334C204.685 253.474 205.635 253.228 206.393 252.648C207.151 252.068 207.654 251.202 207.792 250.24C210.705 233.883 211.368 217.186 209.761 200.64C208.828 193.494 207.481 186.454 206.652 180.8C211.73 178.026 211.833 174.506 221.265 145.706C221.887 142.294 225.618 131.626 223.234 128.426C222.784 127.899 222.204 127.509 221.555 127.297C220.906 127.086 220.212 127.061 219.55 127.226C218.889 127.39 218.283 127.738 217.8 128.232C217.316 128.726 216.973 129.346 216.808 130.026C213.699 141.424 209.244 152.386 203.543 162.666C203.543 163.414 203.025 165.654 202.61 167.466C200.745 162.88 203.543 167.466 189.966 146.134C186.443 139.414 184.473 133.76 181.364 133.654C180.783 133.59 180.196 133.677 179.656 133.906C179.115 134.134 178.638 134.498 178.268 134.963C177.898 135.429 177.647 135.982 177.535 136.573C177.425 137.163 177.459 137.773 177.633 138.346C177.633 139.414 175.768 134.294 182.297 149.546C184.267 155.626 193.697 177.6 199.397 180.586C200.641 205.44 201.678 233.28 200.745 249.174Z" fill="#F4E0E3"/>
<path fill-rule="evenodd" clip-rule="evenodd" d="M105.087 72.5335C107.885 76.0535 111.305 113.92 112.86 127.254C115.584 148.302 117.176 169.49 117.627 190.72C117.627 191.682 117.998 192.604 118.659 193.285C119.32 193.965 120.216 194.346 121.151 194.346C122.085 194.346 122.981 193.965 123.642 193.285C124.303 192.604 124.674 191.682 124.674 190.72C124.838 169.348 123.868 147.983 121.773 126.72C120.011 107.84 118.664 73.3863 113.585 66.2399C108.062 60.3527 100.747 56.5888 92.8582 55.5736C93.8251 50.3224 93.8251 44.9312 92.8582 39.68C92.5045 37.1776 91.5524 34.8048 90.0872 32.776C88.622 30.7464 86.6889 29.1231 84.4636 28.0535C77.7666 25.8463 70.7673 24.7663 63.7361 24.8535C66.3073 17.9887 66.3073 10.3847 63.7361 3.51995C63.7361 3.04395 63.6452 2.57195 63.4679 2.13195C63.2907 1.69195 63.0311 1.29195 62.7039 0.955151C62.3766 0.619151 61.9888 0.351956 61.5613 0.169556C61.1338 -0.0128443 60.6752 -0.106445 60.2127 -0.106445C59.7495 -0.106445 59.2916 -0.0128443 58.8641 0.169556C58.4366 0.351956 58.048 0.619151 57.7208 0.955151C57.3936 1.29195 57.1339 1.69195 56.9567 2.13195C56.7803 2.57195 56.6886 3.04395 56.6886 3.51995C53.9479 10.3511 53.9479 18.0223 56.6886 24.8535C53.2002 25.1159 49.7351 25.6503 46.3252 26.4535C37.8273 28.6935 30.0546 29.0136 28.8109 38.08C28.5101 44.1024 28.7876 50.1407 29.6395 56.1063C7.97999 61.4399 6.52882 67.4136 4.97428 80C1.65688 134.056 1.44935 188.266 4.35247 242.346C4.35247 243.195 4.6797 244.01 5.26343 244.61C5.84638 245.21 6.63687 245.546 7.46156 245.546C8.28624 245.546 9.07673 245.21 9.65969 244.61C10.2434 244.01 10.5706 243.195 10.5706 242.346C9.7413 208.32 12.1252 118.934 16.167 85.3335C17.6182 73.0663 16.167 73.1736 27.774 69.8664C51.8182 62.72 98.1436 63.9999 105.087 72.5335ZM37.5164 39.68C52.0568 37.052 66.8848 36.5496 81.5613 38.1864C84.4636 38.8264 86.3291 50.7736 86.1216 54.1864C69.3286 52.1872 52.3498 52.5455 35.6509 55.2535C36.8945 50.8799 40.4179 42.0264 37.5164 39.68Z" fill="#F4E0E3"/>
<path fill-rule="evenodd" clip-rule="evenodd" d="M60.8341 84.16C58.0359 78.4 54.9268 79.68 37.4125 81.6C29.018 81.6 27.0491 90.9864 26.3232 96.4264C25.6423 101.487 25.6423 106.62 26.3232 111.68C27.671 116.48 38.8637 116.906 44.2525 117.014C49.6413 117.12 58.8652 117.334 62.1819 112.426C64.6217 105.134 64.6217 97.212 62.1819 89.92C61.9479 87.9536 61.4955 86.0208 60.8341 84.16ZM34.3034 105.494C33.8868 100.988 33.8868 96.452 34.3034 91.9464C34.3034 91.2 34.9252 90.3464 34.3034 90.1336C34.4573 89.7624 34.5366 89.3632 34.5366 88.96C34.5366 88.5568 34.4573 88.1576 34.3034 87.7864C35.0061 88.4648 35.931 88.8456 36.8941 88.8536C51.4034 88.8536 48.2943 88.8536 50.9891 89.7064C51.8698 92.564 52.1869 95.5744 51.9219 98.56V104.214C49.0195 104.854 36.2723 105.494 34.3034 105.494Z" fill="#F4E0E3"/>
<path fill-rule="evenodd" clip-rule="evenodd" d="M96.2793 162.134C101.15 160.426 102.497 155.946 102.601 150.614C102.465 143.857 101.454 137.149 99.5959 130.666C96.7977 124.906 93.792 126.186 76.1736 128.106C67.779 128.106 65.8102 137.494 65.1884 142.934C64.2627 147.96 64.0536 153.098 64.5666 158.186C66.432 164.906 89.9577 164.266 96.2793 162.134ZM73.0645 152C72.4893 147.582 72.316 143.118 72.5468 138.666C72.5468 137.92 73.1687 137.066 72.5468 136.854C72.7007 136.482 72.78 136.083 72.78 135.68C72.78 135.277 72.7007 134.878 72.5468 134.506C73.8938 136 74.1014 135.574 87.1595 135.894C87.8482 135.822 88.5431 135.822 89.2317 135.894C89.2317 136.746 89.2318 137.706 89.8536 138.026C90.4754 138.346 90.372 149.866 90.372 150.4C84.6303 151.214 78.8552 151.748 73.0645 152Z" fill="#F4E0E3"/>
<path fill-rule="evenodd" clip-rule="evenodd" d="M56.6882 176.854C54.0975 171.2 50.7809 172.266 33.2666 174.294C24.8721 174.294 22.9025 183.574 22.2807 189.12C21.4086 194.117 21.1995 199.212 21.6589 204.266C23.11 209.066 34.3027 209.494 39.5882 209.6C44.8737 209.706 54.8228 209.6 57.6209 205.12C60.2295 197.887 60.4121 189.965 58.1394 182.614C57.8254 180.652 57.3396 178.724 56.6882 176.854ZM30.1576 198.186C29.4199 192.24 29.7355 186.204 31.0903 180.374C31.3996 180.74 31.782 181.034 32.2103 181.236C32.6394 181.438 33.1057 181.545 33.5775 181.546C47.6718 181.546 47.8794 180.8 48.2937 184.426C48.2937 185.706 48.9155 196.48 48.9155 196.8C42.6919 197.594 36.4286 198.022 30.1576 198.08V198.186Z" fill="#F4E0E3"/>
</g>
</svg>
