<svg width="246" height="256" viewBox="0 0 246 256" fill="none" xmlns="http://www.w3.org/2000/svg">
<path fill-rule="evenodd" clip-rule="evenodd" d="M218.873 44.2667C208.631 30.71 195.426 19.674 180.267 12.0019C165.108 4.32973 148.395 0.22454 131.406 0C115.617 0.664149 99.9822 3.38946 84.8995 8.10667C69.4274 12.7254 55.1304 20.6197 42.9795 31.2533C6.17951 65.1733 -28.8072 140.267 36.6862 198.08C36.9561 198.378 37.2854 198.616 37.6528 198.778C38.0202 198.941 38.4176 199.025 38.8195 199.025C39.2214 199.025 39.6188 198.941 39.9862 198.778C40.3536 198.616 40.6829 198.378 40.9528 198.08C41.2367 197.802 41.4621 197.47 41.6161 197.104C41.77 196.737 41.8493 196.344 41.8493 195.947C41.8493 195.549 41.77 195.156 41.6161 194.79C41.4621 194.423 41.2367 194.091 40.9528 193.813C29.6529 184.28 20.8371 172.144 15.2631 158.451C9.68905 144.757 7.5236 129.915 8.95284 115.2V113.387C16.9389 115.36 25.0724 116.68 33.2728 117.333H49.8062C49.5929 121.491 49.5929 125.656 49.8062 129.813C49.82 130.262 49.922 130.703 50.1064 131.112C50.2908 131.521 50.554 131.889 50.8809 132.196C51.2078 132.503 51.592 132.743 52.0116 132.901C52.4312 133.06 52.8779 133.134 53.3262 133.12C53.7878 133.136 54.2477 133.055 54.6762 132.882C55.1046 132.709 55.4921 132.449 55.8137 132.117C56.1353 131.786 56.3838 131.39 56.5433 130.957C56.7027 130.523 56.7696 130.061 56.7395 129.6C56.7395 125.333 56.7395 121.067 57.5928 116.8C65.2728 116.8 72.7395 115.413 80.3128 114.987C80.7738 115.017 81.236 114.95 81.6695 114.79C82.1031 114.631 82.4984 114.382 82.83 114.061C83.1617 113.739 83.4223 113.352 83.595 112.923C83.7677 112.495 83.8487 112.035 83.8328 111.573C83.8471 111.088 83.7639 110.605 83.588 110.153C83.4121 109.7 83.1473 109.288 82.8091 108.94C82.4709 108.592 82.0662 108.315 81.6191 108.126C81.172 107.937 80.6915 107.84 80.2062 107.84C73.1662 107.84 66.1262 106.667 58.8728 106.24C60.152 99.653 61.8986 93.1655 64.0995 86.8267C66.4583 80.0838 69.3104 73.5239 72.6328 67.2C82.4462 67.2 92.2595 68.0533 102.073 68.0533C117.433 68.0533 132.579 67.4133 147.939 66.6667L168.206 65.6L171.406 72.7467C173.224 76.3465 174.826 80.0507 176.206 83.84C177.913 90.24 180.686 98.4533 182.606 107.2C175.246 107.947 167.886 108.907 160.526 109.867C160.115 109.866 159.709 109.949 159.332 110.113C158.955 110.276 158.615 110.515 158.335 110.815C158.055 111.116 157.839 111.471 157.703 111.858C157.566 112.245 157.51 112.657 157.54 113.067C157.594 113.868 157.959 114.617 158.556 115.155C159.154 115.692 159.937 115.976 160.74 115.947C168.633 115.947 176.42 117.013 184.42 117.44C184.86 120.692 185.038 123.973 184.953 127.253C184.924 127.702 184.984 128.151 185.129 128.577C185.274 129.002 185.502 129.394 185.8 129.731C186.097 130.068 186.458 130.343 186.862 130.54C187.266 130.737 187.704 130.853 188.153 130.88C188.615 130.924 189.082 130.876 189.526 130.739C189.97 130.601 190.382 130.377 190.739 130.08C191.096 129.782 191.391 129.417 191.606 129.005C191.821 128.593 191.953 128.143 191.993 127.68C192.208 124.412 192.208 121.134 191.993 117.867H200.313H212.259C220.366 117.867 228.473 116.693 236.473 115.84C236.762 123.004 236.116 130.176 234.553 137.173C231.312 151.102 225.721 164.376 218.02 176.427C213.035 184.058 206.401 190.474 198.606 195.2C197.801 195.668 197.215 196.436 196.975 197.336C196.735 198.235 196.861 199.193 197.326 200C197.813 200.784 198.581 201.353 199.473 201.591C200.364 201.829 201.313 201.718 202.126 201.28C211.095 195.935 218.75 188.644 224.526 179.947C232.954 167.322 239.192 153.366 242.979 138.667C246.492 122.138 246.144 105.021 241.962 88.6484C237.781 72.2757 229.88 57.088 218.873 44.2667ZM210.66 50.9867C211.939 52.5867 213.113 54.2933 214.286 55.8933H177.166L174.926 50.88C170.574 40.1584 164.562 30.1878 157.113 21.3333C154.11 18.1691 150.865 15.2446 147.406 12.5867C172.402 17.4937 194.85 31.0987 210.766 50.9867H210.66ZM50.2328 39.4667C61.4087 30.1214 74.4163 23.2179 88.4195 19.2C93.3262 17.7067 98.4462 16.4267 103.46 15.36C99.7262 18.1333 96.0995 20.8 92.7928 23.8933C86.3714 29.3734 80.4789 35.4446 75.1928 42.0267C71.6003 46.9711 68.3228 52.1369 65.3795 57.4933C54.7128 57.4933 44.0462 58.0267 33.3795 58.0267C38.4176 51.3374 44.059 45.1247 50.2328 39.4667ZM54.6062 83.7333C52.6709 90.974 51.3155 98.3574 50.5528 105.813H49.0595H30.3928H10.4462C13.5538 90.8326 19.609 76.6193 28.2595 64C38.9262 64.8533 49.5928 65.6 60.7928 66.1333C58.2845 71.8335 56.2163 77.7174 54.6062 83.7333ZM140.579 55.4667C125.433 55.4667 110.18 55.4667 94.9262 56.5333H78.9262C80.6328 53.76 82.4462 50.9867 84.3662 48.4267C89.901 40.517 96.2661 33.2222 103.353 26.6667C108.473 21.76 114.02 17.1733 119.46 12.8C123.726 12.2667 127.886 11.9467 131.939 11.7333C137.095 14.536 141.775 18.136 145.806 22.4C153.843 31.8257 160.031 42.6819 164.046 54.4V54.9333L140.579 55.4667ZM211.619 106.667H192.42H191.139C189.966 97.3867 187.833 88.4267 186.553 81.6C185.631 77.0948 184.347 72.6715 182.713 68.3733C182.713 67.2 181.753 66.1333 181.219 64.96L217.059 63.04C217.758 62.9442 218.401 62.6041 218.873 62.08C228.131 75.8026 234.015 91.5184 236.046 107.947C227.939 107.52 219.833 106.667 211.619 106.667Z" fill="white"/>
<path fill-rule="evenodd" clip-rule="evenodd" d="M197.549 225.599L182.189 224.853C182.829 218.559 183.683 212.479 184.323 206.186C184.323 203.199 184.963 200.106 185.069 197.119C185.229 194.064 185.229 191.002 185.069 187.946C185.069 182.719 185.069 177.279 184.536 172.373H188.696C189.423 172.334 190.115 172.049 190.658 171.564C191.201 171.079 191.562 170.424 191.683 169.706C192.172 169.727 192.659 169.632 193.104 169.428C193.549 169.224 193.939 168.917 194.243 168.533C194.881 167.876 195.239 166.996 195.239 166.079C195.239 165.163 194.881 164.283 194.243 163.626C184.749 154.986 165.656 134.293 149.229 120.959C144.21 116.85 138.776 113.275 133.016 110.293C129.761 108.48 126.072 107.595 122.349 107.733C113.102 111.376 104.605 116.692 97.2827 123.413C79.1494 138.133 56.856 159.573 50.776 165.333C50.1963 165.913 49.8707 166.699 49.8707 167.519C49.8707 168.339 50.1963 169.126 50.776 169.706C50.808 170.205 50.9606 170.689 51.2207 171.117C51.4808 171.544 51.8407 171.902 52.2694 172.159C54.7043 173.327 57.2887 174.152 59.9494 174.613C58.2465 180.321 56.8928 186.127 55.896 191.999C55.7364 194.664 55.7364 197.335 55.896 199.999C55.896 202.666 55.8961 205.439 56.5361 208.106C57.3381 214.357 58.5135 220.555 60.056 226.666C56.9627 226.666 53.8694 227.413 50.8827 227.946C50.109 228.027 49.3975 228.407 48.8995 229.004C48.4014 229.602 48.1562 230.37 48.216 231.146C47.9303 230.536 47.4396 230.045 46.8294 229.759C46.4668 229.582 46.0719 229.48 45.6687 229.459C45.2654 229.438 44.8622 229.5 44.4833 229.639C44.1045 229.779 43.7578 229.994 43.4644 230.271C43.171 230.548 42.9368 230.882 42.776 231.253C41.7753 233.104 40.9194 235.029 40.216 237.013C39.6891 238.665 39.4722 240.401 39.5761 242.133C39.7289 243.475 40.1945 244.763 40.9355 245.894C41.6765 247.024 42.6722 247.964 43.8427 248.639C46.3893 250.2 49.2151 251.251 52.1627 251.733C55.0499 252.359 57.9701 252.822 60.9094 253.119C67.5227 253.866 74.3494 254.186 80.8561 254.719C89.6027 255.359 98.3494 255.999 107.203 256.213H146.563C155.416 256.213 165.123 256.213 174.616 255.466C181.028 255.138 187.409 254.353 193.709 253.119C196.668 252.762 199.463 251.569 201.768 249.679C204.073 247.79 205.791 245.284 206.723 242.453C207.476 239.62 207.447 236.637 206.639 233.819C205.832 231.002 204.275 228.456 202.136 226.453C201.607 225.775 200.849 225.314 200.004 225.157C199.16 225 198.286 225.157 197.549 225.599ZM174.723 224.533L144.216 223.039C144.216 218.026 144.749 213.013 144.963 207.893C145.176 202.773 144.963 198.506 144.963 193.919C144.963 189.333 144.429 181.973 144.109 176.106C156.376 175.253 167.469 174.186 176.109 173.333C175.043 178.026 174.083 182.613 173.443 187.413C173 190.454 172.715 193.516 172.589 196.586V205.866C173.016 212.159 173.549 218.346 174.189 224.533H174.723ZM106.563 177.493H107.416C117.336 177.493 127.683 177.493 137.496 176.426C136.536 181.013 135.576 185.706 135.043 190.399C134.615 193.403 134.401 196.432 134.403 199.466C134.246 202.486 134.246 205.513 134.403 208.533C134.403 213.226 135.469 217.919 136.216 222.506H111.149H105.816C105.816 217.599 105.816 212.799 106.563 207.893C107.309 202.986 106.563 198.506 106.563 193.919C106.563 189.333 106.349 182.933 106.029 177.493H106.563ZM116.696 122.239C118.758 120.585 121.06 119.254 123.523 118.293C125.815 118.614 128.003 119.453 129.923 120.746C134.288 123.253 138.492 126.032 142.509 129.066C157.229 139.733 174.509 155.946 185.176 165.119H183.789C183.56 164.66 183.23 164.259 182.823 163.945C182.417 163.631 181.945 163.412 181.443 163.306C180.85 163.286 180.266 163.449 179.769 163.774C179.273 164.098 178.889 164.568 178.669 165.119H127.256C119.043 165.119 110.829 165.119 102.829 165.866C88.856 166.399 76.056 167.253 66.6694 166.933C63.5264 166.915 60.389 166.665 57.2827 166.186C64.856 159.999 81.2827 147.519 96.216 136.426C103.576 130.879 110.723 125.759 116.163 122.239H116.696ZM65.3894 174.826C76.1739 176.319 87.0373 177.174 97.9227 177.386C97.0694 181.653 96.216 186.026 95.6827 190.506C95.2548 193.509 95.0409 196.539 95.0427 199.573C94.8858 202.593 94.8858 205.619 95.0427 208.639C95.4133 213.401 96.0543 218.137 96.9627 222.826H93.7627C84.6961 223.359 75.6294 224.213 66.6694 225.279V206.613V194.239C66.8827 187.733 65.9227 181.333 65.3894 174.826ZM199.149 239.359C198.556 240.777 197.566 241.994 196.298 242.865C195.031 243.735 193.539 244.221 192.003 244.266C186.059 245.008 180.073 245.365 174.083 245.333C164.696 245.333 155.096 245.333 146.349 244.586H81.0694H64.1094C60.5423 244.545 56.9807 244.296 53.4427 243.839C51.7329 243.7 50.048 243.341 48.4294 242.773C47.4694 242.773 46.5094 242.026 46.4027 241.173C46.1905 240.333 46.1905 239.453 46.4027 238.613C46.806 236.841 47.4146 235.123 48.216 233.493C48.4282 232.834 48.4282 232.125 48.216 231.466C48.4066 232.132 48.8149 232.714 49.3757 233.12C49.9366 233.527 50.6175 233.733 51.3094 233.706C59.9494 233.066 68.376 232.959 76.9094 232.959C85.4427 232.959 96.7494 233.493 106.776 233.813C116.803 234.133 126.723 233.813 136.749 233.813L197.549 232.746H198.403C198.988 233.733 199.357 234.833 199.486 235.973C199.615 237.113 199.5 238.267 199.149 239.359Z" fill="white"/>
</svg>
